# xmcd CD database file
#
# Track frame offsets:
#	150
#	15117
#	27059
#	39250
#	53315
#	65580
#	77787
#	91654
#	106879
#	122442
#	133346
#	145098
#	156590
#
# Disc length: 2233 seconds
#
# Revision: 3
# Processed by: cddbd v1.5.2PL0 Copyright (c) Steve Scherf et al.
# Submitted via: CDex 1.51
#
DISCID=9508b70d
DTITLE=Bob Marley - Memories [CD2)
DYEAR=1900
DGENRE=
TTITLE0=Soul Rebel
TTITLE1=Soul Almighty
TTITLE2=Reaction
TTITLE3=Soul Shakedown Party
TTITLE4=Can`t You See
TTITLE5=Caution
TTITLE6=I Gotta Keep On Moving
TTITLE7=Put It On
TTITLE8=Keep On Skanking
TTITLE9=African Herbsman
TTITLE10=Mellow Mood
TTITLE11=There She Goes
TTITLE12=Fussing and Fighting
EXTD=
EXTT0=
EXTT1=
EXTT2=
EXTT3=
EXTT4=
EXTT5=
EXTT6=
EXTT7=
EXTT8=
EXTT9=
EXTT10=
EXTT11=
EXTT12=
PLAYORDER=
